
<svg version="1.1" xmlns="http://www.w3.org/2000/svg" xmlns:xlink="http://www.w3.org/1999/xlink" x="0px" y="0px"
	 viewBox="0 0 400 400" xml:space="preserve">

<path d="M307,260.75c0,0-1-22.5-21.25-42c0,0,3,23-13.25,43.25c0,0,4.381-1.902,10.931-2.992
	c-0.446,4.966-3.874,23.224-30.181,26.242c0,0-34,5.75-38.75-34.75c0,0-3.584-103.5-2.25-116.167c0,0,24-1.667,30.834-1.167
	c0,0,2.666,0.167,3.666,3.167c0,0,4,6.979,6.5-3.26l0.166-16.406c0,0,0.334-5.334-4.5-4.667c0,0-2.333,0.167-3,3.833l-35.332-0.417
	V102.25h-0.705c8.025-3.59,13.621-11.639,13.621-21c0-12.703-10.297-23-23-23c-12.703,0-23,10.297-23,23
	c0,9.572,5.849,17.776,14.167,21.239v12.927l-35.333,0.417c-0.667-3.667-3-3.833-3-3.833c-4.833-0.667-4.5,4.667-4.5,4.667
	L149,133.073c2.5,10.24,6.5,3.26,6.5,3.26c1-3,3.667-3.167,3.667-3.167c6.833-0.5,30.833,1.167,30.833,1.167
	C191.333,147,187.75,250.5,187.75,250.5C183,291,149,285.25,149,285.25c-26.075-2.992-29.672-20.956-30.168-26.108
	C124.955,260.246,129,262,129,262c-16.25-20.25-13.25-43.25-13.25-43.25c-20.25,19.5-21.25,42-21.25,42
	c2.872-1.041,5.742-1.693,8.534-2.069c0.336,5.623,4.019,35.415,44.216,50.319c0,0,52.875,18,53.875,30.5
	C202.125,327,255,309,255,309c39.959-14.816,43.834-44.344,44.209-50.216C301.767,259.174,304.383,259.802,307,260.75z
	 M200.5,91.855c-5.857,0-10.605-4.749-10.605-10.605s4.749-10.605,10.605-10.605c5.857,0,10.605,4.749,10.605,10.605
	S206.357,91.855,200.5,91.855z"/>
<path d="M305,260.75c0,0-1-22.5-21.25-42c0,0,3,23-13.25,43.25c0,0,4.381-1.902,10.931-2.992
	c-0.446,4.966-3.874,23.224-30.181,26.242c0,0-34,5.75-38.75-34.75c0,0-3.584-103.5-2.25-116.167c0,0,24-1.667,30.834-1.167
	c0,0,2.666,0.167,3.666,3.167c0,0,4,6.979,6.5-3.26l0.166-16.406c0,0,0.334-5.334-4.5-4.667c0,0-2.333,0.167-3,3.833l-35.332-0.417
	V102.25h-0.705c8.025-3.59,13.621-11.639,13.621-21c0-12.703-10.297-23-23-23c-12.703,0-23,10.297-23,23
	c0,9.572,5.849,17.776,14.167,21.239v12.927l-35.333,0.417c-0.667-3.667-3-3.833-3-3.833c-4.833-0.667-4.5,4.667-4.5,4.667
	L147,133.073c2.5,10.24,6.5,3.26,6.5,3.26c1-3,3.667-3.167,3.667-3.167c6.833-0.5,30.833,1.167,30.833,1.167
	C189.333,147,185.75,250.5,185.75,250.5C181,291,147,285.25,147,285.25c-26.075-2.992-29.672-20.956-30.168-26.108
	C122.955,260.246,127,262,127,262c-16.25-20.25-13.25-43.25-13.25-43.25c-20.25,19.5-21.25,42-21.25,42
	c2.872-1.041,5.742-1.693,8.534-2.069c0.336,5.623,4.019,35.415,44.216,50.319c0,0,52.875,18,53.875,30.5
	C200.125,327,253,309,253,309c39.959-14.816,43.834-44.344,44.209-50.216C299.767,259.174,302.383,259.802,305,260.75z
	 M198.5,91.855c-5.857,0-10.605-4.749-10.605-10.605s4.749-10.605,10.605-10.605c5.857,0,10.605,4.749,10.605,10.605
	S204.357,91.855,198.5,91.855z"/>
</svg>
