<svg version="1.1" xmlns="http://www.w3.org/2000/svg" xmlns:xlink="http://www.w3.org/1999/xlink" x="0px" y="0px"
	 viewBox="0 0 512 512" xml:space="preserve">
<path d="M434.9,356H264.3v50H331c4.6,0,8.3,3.7,8.3,8.3c0,4.6-3.7,8.3-8.3,8.3H181.6c-4.6,0-8.3-3.7-8.3-8.3
	c0-4.6,3.7-8.3,8.3-8.3h66.1v-50H77.1c-11.6,0-21.1-9.6-21.1-21.5V110.8c0-11.8,9.5-21.5,21.1-21.5h357.8c11.6,0,21.1,9.6,21.1,21.5
	v223.7C456,346.4,446.5,356,434.9,356z M439.3,110.8c0-2.6-2-4.8-4.4-4.8H77.1c-2.4,0-4.4,2.2-4.4,4.8v223.7c0,2.6,2,4.8,4.4,4.8
	h357.8c2.4,0,4.4-2.2,4.4-4.8V110.8z"/>
</svg>
